<svg width="86" height="78" viewBox="0 0 86 78" fill="none" xmlns="http://www.w3.org/2000/svg">
<g opacity="0.3">
<mask id="mask0_1_71" style="mask-type:alpha" maskUnits="userSpaceOnUse" x="0" y="0" width="8" height="8">
<path d="M3.90962 7.97735C6.06885 7.97735 7.81925 6.19152 7.81925 3.98865C7.81925 1.78577 6.06885 0 3.90962 0C1.7504 0 0 1.78577 0 3.98865C0 6.19152 1.7504 7.97735 3.90962 7.97735Z" fill="url(#paint0_linear_1_71)"/>
</mask>
<g mask="url(#mask0_1_71)">
<path d="M3.90962 7.97735C6.06885 7.97735 7.81925 6.19152 7.81925 3.98865C7.81925 1.78577 6.06885 0 3.90962 0C1.7504 0 0 1.78577 0 3.98865C0 6.19152 1.7504 7.97735 3.90962 7.97735Z" fill="url(#paint1_linear_1_71)"/>
</g>
<mask id="mask1_1_71" style="mask-type:alpha" maskUnits="userSpaceOnUse" x="22" y="0" width="9" height="8">
<path d="M26.5525 7.97735C28.7117 7.97735 30.4621 6.19152 30.4621 3.98865C30.4621 1.78577 28.7117 0 26.5525 0C24.3932 0 22.6428 1.78577 22.6428 3.98865C22.6428 6.19152 24.3932 7.97735 26.5525 7.97735Z" fill="url(#paint2_linear_1_71)"/>
</mask>
<g mask="url(#mask1_1_71)">
<path d="M26.5527 7.97735C28.7119 7.97735 30.4623 6.19152 30.4623 3.98865C30.4623 1.78577 28.7119 0 26.5527 0C24.3935 0 22.6431 1.78577 22.6431 3.98865C22.6431 6.19152 24.3935 7.97735 26.5527 7.97735Z" fill="url(#paint3_linear_1_71)"/>
</g>
<mask id="mask2_1_71" style="mask-type:alpha" maskUnits="userSpaceOnUse" x="45" y="0" width="9" height="8">
<path d="M49.1953 7.97735C51.3545 7.97735 53.1049 6.19152 53.1049 3.98865C53.1049 1.78577 51.3545 0 49.1953 0C47.036 0 45.2856 1.78577 45.2856 3.98865C45.2856 6.19152 47.036 7.97735 49.1953 7.97735Z" fill="url(#paint4_linear_1_71)"/>
</mask>
<g mask="url(#mask2_1_71)">
<path d="M49.196 7.97735C51.3552 7.97735 53.1056 6.19152 53.1056 3.98865C53.1056 1.78577 51.3552 0 49.196 0C47.0368 0 45.2864 1.78577 45.2864 3.98865C45.2864 6.19152 47.0368 7.97735 49.196 7.97735Z" fill="url(#paint5_linear_1_71)"/>
</g>
<mask id="mask3_1_71" style="mask-type:alpha" maskUnits="userSpaceOnUse" x="67" y="0" width="9" height="8">
<path d="M71.8381 7.97735C73.9973 7.97735 75.7477 6.19152 75.7477 3.98865C75.7477 1.78577 73.9973 0 71.8381 0C69.6789 0 67.9285 1.78577 67.9285 3.98865C67.9285 6.19152 69.6789 7.97735 71.8381 7.97735Z" fill="url(#paint6_linear_1_71)"/>
</mask>
<g mask="url(#mask3_1_71)">
<path d="M71.8386 7.97735C73.9978 7.97735 75.7482 6.19152 75.7482 3.98865C75.7482 1.78577 73.9978 0 71.8386 0C69.6794 0 67.929 1.78577 67.929 3.98865C67.929 6.19152 69.6794 7.97735 71.8386 7.97735Z" fill="url(#paint7_linear_1_71)"/>
</g>
<mask id="mask4_1_71" style="mask-type:alpha" maskUnits="userSpaceOnUse" x="0" y="20" width="8" height="9">
<path d="M3.90962 28.0037C6.06885 28.0037 7.81925 26.2179 7.81925 24.0151C7.81925 21.8122 6.06885 20.0264 3.90962 20.0264C1.7504 20.0264 0 21.8122 0 24.0151C0 26.2179 1.7504 28.0037 3.90962 28.0037Z" fill="url(#paint8_linear_1_71)"/>
</mask>
<g mask="url(#mask4_1_71)">
<path d="M3.90962 28.0038C6.06885 28.0038 7.81925 26.218 7.81925 24.0151C7.81925 21.8123 6.06885 20.0265 3.90962 20.0265C1.7504 20.0265 0 21.8123 0 24.0151C0 26.218 1.7504 28.0038 3.90962 28.0038Z" fill="url(#paint9_linear_1_71)"/>
</g>
<mask id="mask5_1_71" style="mask-type:alpha" maskUnits="userSpaceOnUse" x="22" y="20" width="9" height="9">
<path d="M26.5525 28.0038C28.7117 28.0038 30.4621 26.218 30.4621 24.0151C30.4621 21.8123 28.7117 20.0265 26.5525 20.0265C24.3932 20.0265 22.6428 21.8123 22.6428 24.0151C22.6428 26.218 24.3932 28.0038 26.5525 28.0038Z" fill="url(#paint10_linear_1_71)"/>
</mask>
<g mask="url(#mask5_1_71)">
<path d="M26.5527 28.0037C28.7119 28.0037 30.4623 26.2179 30.4623 24.0151C30.4623 21.8122 28.7119 20.0264 26.5527 20.0264C24.3935 20.0264 22.6431 21.8122 22.6431 24.0151C22.6431 26.2179 24.3935 28.0037 26.5527 28.0037Z" fill="url(#paint11_linear_1_71)"/>
</g>
<mask id="mask6_1_71" style="mask-type:alpha" maskUnits="userSpaceOnUse" x="45" y="20" width="9" height="9">
<path d="M49.1953 28.0038C51.3545 28.0038 53.1049 26.218 53.1049 24.0151C53.1049 21.8123 51.3545 20.0265 49.1953 20.0265C47.036 20.0265 45.2856 21.8123 45.2856 24.0151C45.2856 26.218 47.036 28.0038 49.1953 28.0038Z" fill="url(#paint12_linear_1_71)"/>
</mask>
<g mask="url(#mask6_1_71)">
<path d="M49.196 28.0037C51.3552 28.0037 53.1056 26.2179 53.1056 24.0151C53.1056 21.8122 51.3552 20.0264 49.196 20.0264C47.0368 20.0264 45.2864 21.8122 45.2864 24.0151C45.2864 26.2179 47.0368 28.0037 49.196 28.0037Z" fill="url(#paint13_linear_1_71)"/>
</g>
<mask id="mask7_1_71" style="mask-type:alpha" maskUnits="userSpaceOnUse" x="67" y="20" width="9" height="9">
<path d="M71.8381 28.0038C73.9973 28.0038 75.7477 26.218 75.7477 24.0151C75.7477 21.8123 73.9973 20.0265 71.8381 20.0265C69.6789 20.0265 67.9285 21.8123 67.9285 24.0151C67.9285 26.218 69.6789 28.0038 71.8381 28.0038Z" fill="url(#paint14_linear_1_71)"/>
</mask>
<g mask="url(#mask7_1_71)">
<path d="M71.8386 28.0037C73.9978 28.0037 75.7482 26.2179 75.7482 24.0151C75.7482 21.8122 73.9978 20.0264 71.8386 20.0264C69.6794 20.0264 67.929 21.8122 67.929 24.0151C67.929 26.2179 69.6794 28.0037 71.8386 28.0037Z" fill="url(#paint15_linear_1_71)"/>
</g>
<mask id="mask8_1_71" style="mask-type:alpha" maskUnits="userSpaceOnUse" x="0" y="40" width="8" height="8">
<path d="M3.90962 47.9887C6.06885 47.9887 7.81925 46.2029 7.81925 44C7.81925 41.7971 6.06885 40.0114 3.90962 40.0114C1.7504 40.0114 0 41.7971 0 44C0 46.2029 1.7504 47.9887 3.90962 47.9887Z" fill="url(#paint16_linear_1_71)"/>
</mask>
<g mask="url(#mask8_1_71)">
<path d="M3.90962 47.9888C6.06885 47.9888 7.81925 46.203 7.81925 44.0001C7.81925 41.7973 6.06885 40.0115 3.90962 40.0115C1.7504 40.0115 0 41.7973 0 44.0001C0 46.203 1.7504 47.9888 3.90962 47.9888Z" fill="url(#paint17_linear_1_71)"/>
</g>
<mask id="mask9_1_71" style="mask-type:alpha" maskUnits="userSpaceOnUse" x="22" y="40" width="9" height="8">
<path d="M26.5525 47.9889C28.7117 47.9889 30.4621 46.2032 30.4621 44.0003C30.4621 41.7974 28.7117 40.0116 26.5525 40.0116C24.3932 40.0116 22.6428 41.7974 22.6428 44.0003C22.6428 46.2032 24.3932 47.9889 26.5525 47.9889Z" fill="url(#paint18_linear_1_71)"/>
</mask>
<g mask="url(#mask9_1_71)">
<path d="M26.5527 47.9888C28.7119 47.9888 30.4623 46.203 30.4623 44.0001C30.4623 41.7972 28.7119 40.0114 26.5527 40.0114C24.3935 40.0114 22.6431 41.7972 22.6431 44.0001C22.6431 46.203 24.3935 47.9888 26.5527 47.9888Z" fill="url(#paint19_linear_1_71)"/>
</g>
<mask id="mask10_1_71" style="mask-type:alpha" maskUnits="userSpaceOnUse" x="45" y="40" width="9" height="8">
<path d="M49.1953 47.9889C51.3545 47.9889 53.1049 46.2032 53.1049 44.0003C53.1049 41.7974 51.3545 40.0116 49.1953 40.0116C47.036 40.0116 45.2856 41.7974 45.2856 44.0003C45.2856 46.2032 47.036 47.9889 49.1953 47.9889Z" fill="url(#paint20_linear_1_71)"/>
</mask>
<g mask="url(#mask10_1_71)">
<path d="M49.196 47.9888C51.3552 47.9888 53.1056 46.203 53.1056 44.0001C53.1056 41.7972 51.3552 40.0114 49.196 40.0114C47.0368 40.0114 45.2864 41.7972 45.2864 44.0001C45.2864 46.203 47.0368 47.9888 49.196 47.9888Z" fill="url(#paint21_linear_1_71)"/>
</g>
<mask id="mask11_1_71" style="mask-type:alpha" maskUnits="userSpaceOnUse" x="67" y="40" width="9" height="8">
<path d="M71.8381 47.9889C73.9973 47.9889 75.7477 46.2032 75.7477 44.0003C75.7477 41.7974 73.9973 40.0116 71.8381 40.0116C69.6789 40.0116 67.9285 41.7974 67.9285 44.0003C67.9285 46.2032 69.6789 47.9889 71.8381 47.9889Z" fill="url(#paint22_linear_1_71)"/>
</mask>
<g mask="url(#mask11_1_71)">
<path d="M71.8386 47.9888C73.9978 47.9888 75.7482 46.203 75.7482 44.0001C75.7482 41.7972 73.9978 40.0114 71.8386 40.0114C69.6794 40.0114 67.929 41.7972 67.929 44.0001C67.929 46.203 69.6794 47.9888 71.8386 47.9888Z" fill="url(#paint23_linear_1_71)"/>
</g>
<mask id="mask12_1_71" style="mask-type:alpha" maskUnits="userSpaceOnUse" x="0" y="60" width="8" height="9">
<path d="M3.90962 68.0154C6.06885 68.0154 7.81925 66.2296 7.81925 64.0267C7.81925 61.8239 6.06885 60.0381 3.90962 60.0381C1.7504 60.0381 0 61.8239 0 64.0267C0 66.2296 1.7504 68.0154 3.90962 68.0154Z" fill="url(#paint24_linear_1_71)"/>
</mask>
<g mask="url(#mask12_1_71)">
<path d="M3.90962 68.0152C6.06885 68.0152 7.81925 66.2294 7.81925 64.0265C7.81925 61.8236 6.06885 60.0378 3.90962 60.0378C1.7504 60.0378 0 61.8236 0 64.0265C0 66.2294 1.7504 68.0152 3.90962 68.0152Z" fill="url(#paint25_linear_1_71)"/>
</g>
<mask id="mask13_1_71" style="mask-type:alpha" maskUnits="userSpaceOnUse" x="22" y="60" width="9" height="9">
<path d="M26.5525 68.0154C28.7117 68.0154 30.4621 66.2296 30.4621 64.0267C30.4621 61.8239 28.7117 60.0381 26.5525 60.0381C24.3932 60.0381 22.6428 61.8239 22.6428 64.0267C22.6428 66.2296 24.3932 68.0154 26.5525 68.0154Z" fill="url(#paint26_linear_1_71)"/>
</mask>
<g mask="url(#mask13_1_71)">
<path d="M26.5527 68.0152C28.7119 68.0152 30.4623 66.2294 30.4623 64.0265C30.4623 61.8236 28.7119 60.0378 26.5527 60.0378C24.3935 60.0378 22.6431 61.8236 22.6431 64.0265C22.6431 66.2294 24.3935 68.0152 26.5527 68.0152Z" fill="url(#paint27_linear_1_71)"/>
</g>
<mask id="mask14_1_71" style="mask-type:alpha" maskUnits="userSpaceOnUse" x="45" y="60" width="9" height="9">
<path d="M49.1953 68.0154C51.3545 68.0154 53.1049 66.2296 53.1049 64.0267C53.1049 61.8239 51.3545 60.0381 49.1953 60.0381C47.036 60.0381 45.2856 61.8239 45.2856 64.0267C45.2856 66.2296 47.036 68.0154 49.1953 68.0154Z" fill="url(#paint28_linear_1_71)"/>
</mask>
<g mask="url(#mask14_1_71)">
<path d="M49.196 68.0152C51.3552 68.0152 53.1056 66.2294 53.1056 64.0265C53.1056 61.8236 51.3552 60.0378 49.196 60.0378C47.0368 60.0378 45.2864 61.8236 45.2864 64.0265C45.2864 66.2294 47.0368 68.0152 49.196 68.0152Z" fill="url(#paint29_linear_1_71)"/>
</g>
<mask id="mask15_1_71" style="mask-type:alpha" maskUnits="userSpaceOnUse" x="67" y="60" width="9" height="9">
<path d="M71.8381 68.0154C73.9973 68.0154 75.7477 66.2296 75.7477 64.0267C75.7477 61.8239 73.9973 60.0381 71.8381 60.0381C69.6789 60.0381 67.9285 61.8239 67.9285 64.0267C67.9285 66.2296 69.6789 68.0154 71.8381 68.0154Z" fill="url(#paint30_linear_1_71)"/>
</mask>
<g mask="url(#mask15_1_71)">
<path d="M71.8386 68.0152C73.9978 68.0152 75.7482 66.2294 75.7482 64.0265C75.7482 61.8236 73.9978 60.0378 71.8386 60.0378C69.6794 60.0378 67.929 61.8236 67.929 64.0265C67.929 66.2294 69.6794 68.0152 71.8386 68.0152Z" fill="url(#paint31_linear_1_71)"/>
</g>
</g>
<defs>
<linearGradient id="paint0_linear_1_71" x1="38.076" y1="92.4707" x2="-17.486" y2="-45.7764" gradientUnits="userSpaceOnUse">
<stop stop-color="#89C5CC"/>
<stop offset="1" stop-color="#89C5CC"/>
</linearGradient>
<linearGradient id="paint1_linear_1_71" x1="38.076" y1="92.4707" x2="-17.486" y2="-45.7764" gradientUnits="userSpaceOnUse">
<stop stop-color="#89C5CC"/>
<stop offset="1" stop-color="#89C5CC"/>
</linearGradient>
<linearGradient id="paint2_linear_1_71" x1="60.7188" y1="92.4707" x2="5.15687" y2="-45.7764" gradientUnits="userSpaceOnUse">
<stop stop-color="#89C5CC"/>
<stop offset="1" stop-color="#89C5CC"/>
</linearGradient>
<linearGradient id="paint3_linear_1_71" x1="60.7191" y1="92.4707" x2="5.15712" y2="-45.7764" gradientUnits="userSpaceOnUse">
<stop stop-color="#89C5CC"/>
<stop offset="1" stop-color="#89C5CC"/>
</linearGradient>
<linearGradient id="paint4_linear_1_71" x1="83.3617" y1="92.4707" x2="27.7997" y2="-45.7764" gradientUnits="userSpaceOnUse">
<stop stop-color="#89C5CC"/>
<stop offset="1" stop-color="#89C5CC"/>
</linearGradient>
<linearGradient id="paint5_linear_1_71" x1="83.3624" y1="92.4707" x2="27.8004" y2="-45.7764" gradientUnits="userSpaceOnUse">
<stop stop-color="#89C5CC"/>
<stop offset="1" stop-color="#89C5CC"/>
</linearGradient>
<linearGradient id="paint6_linear_1_71" x1="106.004" y1="92.4707" x2="50.4425" y2="-45.7764" gradientUnits="userSpaceOnUse">
<stop stop-color="#89C5CC"/>
<stop offset="1" stop-color="#89C5CC"/>
</linearGradient>
<linearGradient id="paint7_linear_1_71" x1="106.005" y1="92.4707" x2="50.443" y2="-45.7764" gradientUnits="userSpaceOnUse">
<stop stop-color="#89C5CC"/>
<stop offset="1" stop-color="#89C5CC"/>
</linearGradient>
<linearGradient id="paint8_linear_1_71" x1="38.076" y1="112.496" x2="-17.4851" y2="-25.7499" gradientUnits="userSpaceOnUse">
<stop stop-color="#89C5CC"/>
<stop offset="1" stop-color="#89C5CC"/>
</linearGradient>
<linearGradient id="paint9_linear_1_71" x1="38.076" y1="112.496" x2="-17.4851" y2="-25.7498" gradientUnits="userSpaceOnUse">
<stop stop-color="#89C5CC"/>
<stop offset="1" stop-color="#89C5CC"/>
</linearGradient>
<linearGradient id="paint10_linear_1_71" x1="60.7188" y1="112.496" x2="5.15782" y2="-25.7499" gradientUnits="userSpaceOnUse">
<stop stop-color="#89C5CC"/>
<stop offset="1" stop-color="#89C5CC"/>
</linearGradient>
<linearGradient id="paint11_linear_1_71" x1="60.7191" y1="112.496" x2="5.15806" y2="-25.7499" gradientUnits="userSpaceOnUse">
<stop stop-color="#89C5CC"/>
<stop offset="1" stop-color="#89C5CC"/>
</linearGradient>
<linearGradient id="paint12_linear_1_71" x1="83.3617" y1="112.496" x2="27.8006" y2="-25.7499" gradientUnits="userSpaceOnUse">
<stop stop-color="#89C5CC"/>
<stop offset="1" stop-color="#89C5CC"/>
</linearGradient>
<linearGradient id="paint13_linear_1_71" x1="83.3624" y1="112.496" x2="27.8014" y2="-25.7499" gradientUnits="userSpaceOnUse">
<stop stop-color="#89C5CC"/>
<stop offset="1" stop-color="#89C5CC"/>
</linearGradient>
<linearGradient id="paint14_linear_1_71" x1="106.004" y1="112.496" x2="50.4435" y2="-25.7499" gradientUnits="userSpaceOnUse">
<stop stop-color="#89C5CC"/>
<stop offset="1" stop-color="#89C5CC"/>
</linearGradient>
<linearGradient id="paint15_linear_1_71" x1="106.005" y1="112.496" x2="50.4439" y2="-25.7499" gradientUnits="userSpaceOnUse">
<stop stop-color="#89C5CC"/>
<stop offset="1" stop-color="#89C5CC"/>
</linearGradient>
<linearGradient id="paint16_linear_1_71" x1="38.076" y1="132.482" x2="-17.486" y2="-5.76504" gradientUnits="userSpaceOnUse">
<stop stop-color="#89C5CC"/>
<stop offset="1" stop-color="#89C5CC"/>
</linearGradient>
<linearGradient id="paint17_linear_1_71" x1="38.076" y1="132.482" x2="-17.486" y2="-5.76491" gradientUnits="userSpaceOnUse">
<stop stop-color="#89C5CC"/>
<stop offset="1" stop-color="#89C5CC"/>
</linearGradient>
<linearGradient id="paint18_linear_1_71" x1="60.7188" y1="132.482" x2="5.15687" y2="-5.76484" gradientUnits="userSpaceOnUse">
<stop stop-color="#89C5CC"/>
<stop offset="1" stop-color="#89C5CC"/>
</linearGradient>
<linearGradient id="paint19_linear_1_71" x1="60.7191" y1="132.482" x2="5.15712" y2="-5.76502" gradientUnits="userSpaceOnUse">
<stop stop-color="#89C5CC"/>
<stop offset="1" stop-color="#89C5CC"/>
</linearGradient>
<linearGradient id="paint20_linear_1_71" x1="83.3617" y1="132.482" x2="27.7997" y2="-5.76484" gradientUnits="userSpaceOnUse">
<stop stop-color="#89C5CC"/>
<stop offset="1" stop-color="#89C5CC"/>
</linearGradient>
<linearGradient id="paint21_linear_1_71" x1="83.3624" y1="132.482" x2="27.8004" y2="-5.76502" gradientUnits="userSpaceOnUse">
<stop stop-color="#89C5CC"/>
<stop offset="1" stop-color="#89C5CC"/>
</linearGradient>
<linearGradient id="paint22_linear_1_71" x1="106.004" y1="132.482" x2="50.4425" y2="-5.76484" gradientUnits="userSpaceOnUse">
<stop stop-color="#89C5CC"/>
<stop offset="1" stop-color="#89C5CC"/>
</linearGradient>
<linearGradient id="paint23_linear_1_71" x1="106.005" y1="132.482" x2="50.443" y2="-5.76502" gradientUnits="userSpaceOnUse">
<stop stop-color="#89C5CC"/>
<stop offset="1" stop-color="#89C5CC"/>
</linearGradient>
<linearGradient id="paint24_linear_1_71" x1="38.076" y1="152.509" x2="-17.486" y2="14.2617" gradientUnits="userSpaceOnUse">
<stop stop-color="#89C5CC"/>
<stop offset="1" stop-color="#89C5CC"/>
</linearGradient>
<linearGradient id="paint25_linear_1_71" x1="38.076" y1="152.509" x2="-17.486" y2="14.2615" gradientUnits="userSpaceOnUse">
<stop stop-color="#89C5CC"/>
<stop offset="1" stop-color="#89C5CC"/>
</linearGradient>
<linearGradient id="paint26_linear_1_71" x1="60.7188" y1="152.509" x2="5.15687" y2="14.2616" gradientUnits="userSpaceOnUse">
<stop stop-color="#89C5CC"/>
<stop offset="1" stop-color="#89C5CC"/>
</linearGradient>
<linearGradient id="paint27_linear_1_71" x1="60.7191" y1="152.509" x2="5.15712" y2="14.2614" gradientUnits="userSpaceOnUse">
<stop stop-color="#89C5CC"/>
<stop offset="1" stop-color="#89C5CC"/>
</linearGradient>
<linearGradient id="paint28_linear_1_71" x1="83.3617" y1="152.509" x2="27.7997" y2="14.2616" gradientUnits="userSpaceOnUse">
<stop stop-color="#89C5CC"/>
<stop offset="1" stop-color="#89C5CC"/>
</linearGradient>
<linearGradient id="paint29_linear_1_71" x1="83.3624" y1="152.509" x2="27.8004" y2="14.2614" gradientUnits="userSpaceOnUse">
<stop stop-color="#89C5CC"/>
<stop offset="1" stop-color="#89C5CC"/>
</linearGradient>
<linearGradient id="paint30_linear_1_71" x1="106.004" y1="152.509" x2="50.4425" y2="14.2616" gradientUnits="userSpaceOnUse">
<stop stop-color="#89C5CC"/>
<stop offset="1" stop-color="#89C5CC"/>
</linearGradient>
<linearGradient id="paint31_linear_1_71" x1="106.005" y1="152.509" x2="50.443" y2="14.2614" gradientUnits="userSpaceOnUse">
<stop stop-color="#89C5CC"/>
<stop offset="1" stop-color="#89C5CC"/>
</linearGradient>
</defs>
</svg>
